<svg width="75" height="41" viewBox="0 0 75 41" fill="none" xmlns="http://www.w3.org/2000/svg">
    <path d="M33.25 12.3L31.75 12.8L25.8 3.95H12V19.8H19.85L23.5 13.4H25.05V27.1L23.05 28.1L20 22.05H11.95V36.85L19.7 39L18.7 41H1V39.45L5.7 35.75V5.45L0.5 3.7L1.5 1.7H30.5L33.25 0.799999V12.3ZM73.2148 41H58.0148V39.45L62.7148 35.8L58.8648 26.55H42.0648L37.9648 36L46.7648 39L45.7648 41H30.5648V39.45L35.2648 35.75L49.4148 3.3L54.6148 0.749997L69.2148 35.95L74.2148 39L73.2148 41ZM50.6648 6.75L43.0648 24.3H57.9648L50.6648 6.75Z" fill="white"/>
</svg>
