<svg width="25" height="24" viewBox="0 0 25 24" fill="none" xmlns="http://www.w3.org/2000/svg">
<path d="M13.528 2.00099C14.2577 1.99819 14.9875 2.00552 15.717 2.02299L15.911 2.02999C16.135 2.03799 16.356 2.04799 16.623 2.05999C17.687 2.10999 18.413 2.27799 19.05 2.52499C19.71 2.77899 20.266 3.12299 20.822 3.67899C21.3304 4.17859 21.7238 4.78293 21.975 5.44999C22.222 6.08699 22.39 6.81399 22.44 7.87799C22.452 8.14399 22.462 8.36599 22.47 8.58999L22.476 8.78399C22.4938 9.51318 22.5014 10.2426 22.499 10.972L22.5 11.718V13.028C22.5025 13.7577 22.4948 14.4875 22.477 15.217L22.471 15.411C22.463 15.635 22.453 15.856 22.441 16.123C22.391 17.187 22.221 17.913 21.975 18.55C21.7246 19.2177 21.3311 19.8226 20.822 20.322C20.322 20.8303 19.7173 21.2237 19.05 21.475C18.413 21.722 17.687 21.89 16.623 21.94C16.356 21.952 16.135 21.962 15.911 21.97L15.717 21.976C14.9875 21.9938 14.2577 22.0014 13.528 21.999L12.782 22H11.473C10.7433 22.0025 10.0135 21.9948 9.284 21.977L9.09 21.971C8.85261 21.9624 8.61527 21.9524 8.378 21.941C7.314 21.891 6.588 21.721 5.95 21.475C5.28268 21.2243 4.67823 20.8308 4.179 20.322C3.67004 19.8223 3.27622 19.2175 3.025 18.55C2.778 17.913 2.61 17.187 2.56 16.123C2.54886 15.8857 2.53886 15.6484 2.53 15.411L2.525 15.217C2.50656 14.4875 2.49823 13.7577 2.5 13.028V10.972C2.49721 10.2426 2.50454 9.51318 2.522 8.78399L2.529 8.58999C2.537 8.36599 2.547 8.14399 2.559 7.87799C2.609 6.81299 2.777 6.08799 3.024 5.44999C3.27537 4.78261 3.66996 4.17843 4.18 3.67999C4.67889 3.17074 5.28296 2.77656 5.95 2.52499C6.588 2.27799 7.313 2.10999 8.378 2.05999L9.09 2.02999L9.284 2.02499C10.0132 2.00656 10.7426 1.99823 11.472 1.99999L13.528 2.00099ZM12.5 7.00099C11.8375 6.99162 11.1798 7.11401 10.565 7.36105C9.95019 7.6081 9.39064 7.97486 8.91884 8.44004C8.44704 8.90522 8.0724 9.45952 7.81668 10.0707C7.56097 10.682 7.42929 11.3379 7.42929 12.0005C7.42929 12.663 7.56097 13.319 7.81668 13.9302C8.0724 14.5414 8.44704 15.0958 8.91884 15.5609C9.39064 16.0261 9.95019 16.3929 10.565 16.6399C11.1798 16.887 11.8375 17.0094 12.5 17C13.8261 17 15.0978 16.4732 16.0355 15.5355C16.9732 14.5978 17.5 13.3261 17.5 12C17.5 10.6739 16.9732 9.40213 16.0355 8.46445C15.0978 7.52677 13.8261 7.00099 12.5 7.00099ZM12.5 9.00099C12.8985 8.99364 13.2945 9.06578 13.6648 9.21319C14.0351 9.3606 14.3723 9.58033 14.6568 9.85953C14.9412 10.1387 15.1672 10.4718 15.3214 10.8393C15.4757 11.2068 15.5552 11.6014 15.5553 12C15.5553 12.3986 15.476 12.7931 15.3218 13.1607C15.1677 13.5283 14.9418 13.8614 14.6575 14.1407C14.3731 14.42 14.036 14.6399 13.6657 14.7874C13.2955 14.9349 12.8995 15.0072 12.501 15C11.7053 15 10.9423 14.6839 10.3797 14.1213C9.81707 13.5587 9.501 12.7956 9.501 12C9.501 11.2043 9.81707 10.4413 10.3797 9.87867C10.9423 9.31606 11.7053 8.99999 12.501 8.99999L12.5 9.00099ZM17.75 5.50099C17.4274 5.5139 17.1223 5.65114 16.8986 5.88396C16.6749 6.11678 16.55 6.42712 16.55 6.74999C16.55 7.07285 16.6749 7.38319 16.8986 7.61601C17.1223 7.84884 17.4274 7.98607 17.75 7.99899C18.0815 7.99899 18.3995 7.86729 18.6339 7.63287C18.8683 7.39845 19 7.08051 19 6.74899C19 6.41747 18.8683 6.09952 18.6339 5.8651C18.3995 5.63068 18.0815 5.49899 17.75 5.49899V5.50099Z" fill="white"/>
</svg>
