<svg width="25" height="24" viewBox="0 0 25 24" fill="none" xmlns="http://www.w3.org/2000/svg">
<path d="M7.44 5.00002C7.43974 5.53046 7.22877 6.03906 6.85351 6.41394C6.47825 6.78883 5.96944 6.99929 5.439 6.99902C4.90857 6.99876 4.39997 6.78779 4.02508 6.41253C3.6502 6.03727 3.43974 5.52846 3.44 4.99802C3.44027 4.46759 3.65124 3.95899 4.0265 3.5841C4.40176 3.20922 4.91057 2.99876 5.441 2.99902C5.97144 2.99929 6.48004 3.21026 6.85492 3.58552C7.22981 3.96078 7.44027 4.46959 7.44 5.00002ZM7.5 8.48002H3.5V21H7.5V8.48002ZM13.82 8.48002H9.84V21H13.78V14.43C13.78 10.77 18.55 10.43 18.55 14.43V21H22.5V13.07C22.5 6.90002 15.44 7.13002 13.78 10.16L13.82 8.48002Z" fill="white"/>
</svg>
