<svg width="25" height="24" viewBox="0 0 25 24" fill="none" xmlns="http://www.w3.org/2000/svg">
<path d="M22.96 6C22.19 6.35 21.36 6.58 20.5 6.69C21.38 6.16 22.06 5.32 22.38 4.31C21.55 4.81 20.63 5.16 19.66 5.36C18.87 4.5 17.76 4 16.5 4C14.15 4 12.23 5.92 12.23 8.29C12.23 8.63 12.27 8.96 12.34 9.27C8.78001 9.09 5.61001 7.38 3.50001 4.79C3.13001 5.42 2.92001 6.16 2.92001 6.94C2.92001 8.43 3.67001 9.75 4.83001 10.5C4.12001 10.5 3.46001 10.3 2.88001 10V10.03C2.88001 12.11 4.36001 13.85 6.32001 14.24C5.69074 14.4122 5.0301 14.4362 4.39001 14.31C4.66162 15.1625 5.19355 15.9084 5.91103 16.4429C6.6285 16.9775 7.49546 17.2737 8.39001 17.29C6.87364 18.4904 4.994 19.1393 3.06001 19.13C2.72001 19.13 2.38001 19.11 2.04001 19.07C3.94001 20.29 6.20001 21 8.62001 21C16.5 21 20.83 14.46 20.83 8.79C20.83 8.6 20.83 8.42 20.82 8.23C21.66 7.63 22.38 6.87 22.96 6Z" fill="white"/>
</svg>
